<svg preserveAspectRatio="none" overflow="visible" style="display: block;" width="16" height="16" viewBox="0 0 16 16" fill="none" xmlns="http://www.w3.org/2000/svg">
<g id="fluent:call-20-regular">
<path id="Vector" d="M5.58963 1.65372L5.01603 1.82652C4.50529 1.98054 4.04918 2.27726 3.70138 2.68175C3.35358 3.08624 3.12857 3.58167 3.05282 4.10972C2.81522 5.76412 3.34642 7.69852 4.62722 9.91692C5.90482 12.1297 7.31123 13.5553 8.85923 14.1793C9.35661 14.3798 9.90109 14.4332 10.4279 14.3332C10.9548 14.2332 11.4419 13.9841 11.8312 13.6153L12.2648 13.2041C12.5464 12.9376 12.7216 12.578 12.758 12.1921C12.7943 11.8061 12.6893 11.4201 12.4624 11.1057L11.3776 9.60172C11.231 9.39867 11.0244 9.24661 10.787 9.16684C10.5496 9.08708 10.2931 9.08361 10.0536 9.15692L8.41282 9.65852L8.37043 9.66652C8.18963 9.69292 7.77202 9.30172 7.25202 8.40092C6.70802 7.45852 6.59602 6.90732 6.74562 6.76492L7.58003 5.98652C7.88485 5.70188 8.09307 5.32908 8.17555 4.92026C8.25803 4.51145 8.21064 4.08707 8.04003 3.70652L7.51042 2.52972C7.35117 2.17559 7.06858 1.89146 6.71533 1.73029C6.36207 1.56912 5.96146 1.5419 5.58963 1.65372ZM6.78242 2.85772L7.31042 4.03452C7.41289 4.26277 7.44145 4.51735 7.39211 4.76263C7.34276 5.00792 7.21798 5.23164 7.03522 5.40252L6.19842 6.18172C5.66242 6.68892 5.84002 7.55452 6.56002 8.80092C7.23682 9.97372 7.85442 10.5529 8.51842 10.4521L8.61763 10.4313L10.288 9.92172C10.3679 9.89719 10.4534 9.89828 10.5326 9.92482C10.6118 9.95136 10.6807 10.002 10.7296 10.0697L11.8144 11.5737C11.928 11.7309 11.9807 11.924 11.9626 12.117C11.9445 12.3101 11.8568 12.49 11.716 12.6233L11.2816 13.0345C11.0035 13.2977 10.6557 13.4756 10.2794 13.5469C9.9032 13.6182 9.5144 13.5801 9.15923 13.4369C7.80083 12.8897 6.51683 11.5881 5.32083 9.51692C4.12163 7.44092 3.63603 5.67532 3.84483 4.22332C3.89887 3.84606 4.05959 3.4921 4.30804 3.20311C4.55649 2.91413 4.88234 2.70214 5.24723 2.59212L5.82083 2.41932C6.00679 2.36344 6.20673 2.3771 6.38337 2.45777C6.56 2.53843 6.70127 2.68058 6.78082 2.85772" fill="#4B5752"/>
</g>
</svg>
